:FULLY-SPECIFIED
:FORCE-ALL-JOINTS-BE-3DOF
:DEGREES
1835
root 6.86761 13.8737 27.7416 1059.45 52.1495 337.532
lfemur -53.5177 28.5734 2.25929
ltibia 68.8164 0 0
lfoot -6.46604 -8.08546 0
ltoes -24.7852 0 0
rfemur 4.39856 -3.61113 17.4323
rtibia 48.2854 0 0
rfoot -26.4355 -30.4678 0
rtoes -26.565 0 0
lowerback 13.7427 4.43593 5.62023
upperback -0.312529 7.34415 5.20438
thorax -8.04566 3.49013 0.910025
lowerneck -4.6131 8.74364 2.66229
upperneck 8.41253 11.6483 -0.965962
head 3.78303 5.82273 -0.205231
lclavicle -1.04904e-13 -3.68384e-14 0
lhumerus 62.5043 18.2636 109.496
lradius 9.76727 0 0
lwrist -82.9528 0 0
lhand -32.2136 42.7901 0
lfingers 7.12502 0 0
lthumb -5.31243 48.5272 0
rclavicle 1.05852e-14 -1.08506e-14 0
rhumerus -70.935 12.8982 -78.4257
rradius 124.384 0 0
rwrist -160.13 0 0
rhand -59.8399 -343.603 0
rfingers 7.12502 0 0
rthumb -46.0128 347.834 0
1836
root 6.90143 13.8723 27.7502 1059.49 52.1689 337.362
lfemur -53.8022 28.7818 2.16033
ltibia 69.2265 0 0
lfoot -6.85073 -8.21472 0
ltoes -24.9559 0 0
rfemur 4.42586 -3.61513 17.4267
rtibia 48.2731 0 0
rfoot -26.2484 -30.4536 0
rtoes -26.5882 0 0
lowerback 13.7539 4.46734 5.71752
upperback -0.376067 7.40932 5.21091
thorax -8.10947 3.51522 0.848001
lowerneck -4.44722 9.07827 2.99496
upperneck 8.29951 12.1068 -1.32359
head 3.77306 6.0463 -0.358745
lclavicle -1.06228e-13 -3.33405e-14 0
lhumerus 62.603 18.0021 109.524
lradius 9.80959 0 0
lwrist -84.2665 0 0
lhand -32.1351 42.576 0
lfingers 7.12502 0 0
lthumb -5.24448 54.0089 0
rclavicle 1.21481e-14 -1.23835e-14 0
rhumerus -71.0824 12.887 -78.7811
rradius 124.498 0 0
rwrist -159.162 0 0
rhand -59.0749 -351.432 0
rfingers 7.12502 0 0
rthumb -45.132 345.449 0
1837
root 6.93532 13.8741 27.7652 1059.64 52.2104 337.374
lfemur -54.0732 28.9802 2.06606
ltibia 69.6187 0 0
lfoot -7.21356 -8.33664 0
ltoes -25.1024 0 0
rfemur 4.43198 -3.62195 17.428
rtibia 48.2374 0 0
rfoot -26.0784 -30.4407 0
rtoes -26.6552 0 0
lowerback 13.7589 4.5533 5.70455
upperback -0.428659 7.52225 5.17295
thorax -8.16406 3.56668 0.790352
lowerneck -4.20918 9.43602 3.3133
upperneck 8.09428 12.5962 -1.66263
head 3.71913 6.28656 -0.508476
lclavicle -1.07643e-13 -2.96032e-14 0
lhumerus 62.6957 17.7565 109.55
lradius 9.82434 0 0
lwrist -85.3963 0 0
lhand -32.0537 42.3542 0
lfingers 7.12502 0 0
lthumb -5.18453 58.8442 0
rclavicle 1.37439e-14 -1.39487e-14 0
rhumerus -71.2543 12.8739 -79.1954
rradius 124.613 0 0
rwrist -157.628 0 0
rhand -58.3099 -359.261 0
rfingers 7.12502 0 0
rthumb -43.9651 342.29 0
1838
root 6.96314 13.8698 27.7648 1059.77 52.2613 337.314
lfemur -54.3267 29.1659 1.97785
ltibia 69.9871 0 0
lfoot -7.54827 -8.44911 0
ltoes -25.2216 0 0
rfemur 4.4498 -3.64177 17.4317
rtibia 48.1805 0 0
rfoot -25.9278 -30.4293 0
rtoes -26.7622 0 0
lowerback 13.8357 4.57918 5.8176
upperback -0.486375 7.58529 5.15208
thorax -8.25247 3.58771 0.685735
lowerneck -3.99529 9.86151 3.6036
upperneck 7.8791 13.183 -2.05905
head 3.67642 6.57219 -0.6649
lclavicle -1.09119e-13 -2.57063e-14 0
lhumerus 62.7809 17.5307 109.575
lradius 9.82702 0 0
lwrist -86.3177 0 0
lhand -31.9703 42.1269 0
lfingers 7.12502 0 0
lthumb -5.13349 62.9614 0
rclavicle 1.53561e-14 -1.55301e-14 0
rhumerus -71.4475 12.8591 -79.6612
rradius 124.729 0 0
rwrist -155.596 0 0
rhand -57.554 -366.998 0
rfingers 7.12502 0 0
rthumb -42.5502 338.459 0
1839
root 6.99258 13.871 27.7785 1059.89 52.344 337.306
lfemur -54.559 29.3361 1.89704
ltibia 70.3257 0 0
lfoot -7.84863 -8.55003 0
ltoes -25.3104 0 0
rfemur 4.47847 -3.67368 17.4376
rtibia 48.1043 0 0
rfoot -25.7991 -30.4195 0
rtoes -26.9054 0 0
lowerback 13.8046 4.6516 5.81218
upperback -0.490953 7.67613 5.134
thorax -8.23616 3.63188 0.654204
lowerneck -3.75778 10.2592 3.82792
upperneck 7.56455 13.7303 -2.41243
head 3.58866 6.83912 -0.803596
lclavicle -1.10624e-13 -2.17296e-14 0
lhumerus 62.8571 17.3288 109.597
lradius 9.8348 0 0
lwrist -87.0063 0 0
lhand -31.8857 41.8963 0
lfingers 7.12502 0 0
lthumb -5.09224 66.2887 0
rclavicle 1.69684e-14 -1.71114e-14 0
rhumerus -71.659 12.843 -80.171
rradius 124.843 0 0
rwrist -153.133 0 0
rhand -56.8163 -374.548 0
rfingers 7.12502 0 0
rthumb -40.9254 334.059 0
1840
root 7.01257 13.8631 27.7881 1059.83 52.3936 337.041
lfemur -54.7662 29.4878 1.82497
ltibia 70.6285 0 0
lfoot -8.10839 -8.63731 0
ltoes -25.366 0 0
rfemur 4.51715 -3.71675 17.4457
rtibia 48.0109 0 0
rfoot -25.6948 -30.4116 0
rtoes -27.0809 0 0
lowerback 13.8542 4.69859 5.96041
upperback -0.532127 7.77334 5.14591
thorax -8.29048 3.67058 0.561385
lowerneck -3.55389 10.6759 4.12353
upperneck 7.33646 14.3037 -2.80322
head 3.55277 7.11972 -0.958493
lclavicle -1.1213e-13 -1.7753e-14 0
lhumerus 62.9228 17.1547 109.615
lradius 9.84731 0 0
lwrist -87.4374 0 0
lhand -31.8008 41.6647 0
lfingers 7.12502 0 0
lthumb -5.06168 68.7542 0
rclavicle 1.85642e-14 -1.86767e-14 0
rhumerus -71.8858 12.8257 -80.7177
rradius 124.955 0 0
rwrist -150.304 0 0
rhand -56.1057 -381.82 0
rfingers 7.12502 0 0
rthumb -39.1289 329.195 0
1841
root 7.03579 13.8583 27.8035 1059.92 52.4662 337.001
lfemur -54.9443 29.6183 1.76299
ltibia 70.8896 0 0
lfoot -8.3213 -8.70885 0
ltoes -25.3852 0 0
rfemur 4.56503 -3.77004 17.4557
rtibia 47.9022 0 0
rfoot -25.6173 -30.4057 0
rtoes -27.2851 0 0
lowerback 13.851 4.76495 5.95738
upperback -0.548253 7.85945 5.12104
thorax -8.30109 3.71091 0.519447
lowerneck -3.31208 11.0897 4.37596
upperneck 7.11322 14.8725 -3.12608
head 3.50572 7.40044 -1.08718
lclavicle -1.13606e-13 -1.38561e-14 0
lhumerus 62.9765 17.0123 109.631
lradius 9.86416 0 0
lwrist -87.5865 0 0
lhand -31.7162 41.4341 0
lfingers 7.12502 0 0
lthumb -5.04269 70.2862 0
rclavicle 2.0127e-14 -2.02095e-14 0
rhumerus -72.1248 12.8075 -81.2937
rradius 125.062 0 0
rwrist -147.176 0 0
rhand -55.4314 -388.721 0
rfingers 7.12502 0 0
rthumb -37.1988 323.969 0
1842
root 7.05387 13.8495 27.8167 1059.84 52.509 336.752
lfemur -55.0896 29.7247 1.71244
ltibia 71.1031 0 0
lfoot -8.48111 -8.76255 0
ltoes -25.3993 0 0
rfemur 4.62125 -3.83262 17.4674
rtibia 47.7804 0 0
rfoot -25.569 -30.4021 0
rtoes -27.514 0 0
lowerback 13.8824 4.8427 6.12938
upperback -0.572124 7.99617 5.11497
thorax -8.31852 3.76838 0.389456
lowerneck -3.16149 11.436 4.52799
upperneck 6.93559 15.3481 -3.36991
head 3.47416 7.63416 -1.17371
lclavicle -1.15021e-13 -1.01188e-14 0
lhumerus 63.0167 16.9057 109.642
lradius 9.88499 0 0
lwrist -87.561 0 0
lhand -31.6328 41.2068 0
lfingers 7.12502 0 0
lthumb -5.03616 70.8128 0
rclavicle 2.16404e-14 -2.16939e-14 0
rhumerus -72.373 12.7886 -81.8919
rradius 125.164 0 0
rwrist -143.816 0 0
rhand -54.8025 -395.158 0
rfingers 7.12502 0 0
rthumb -35.1734 318.485 0
1843
root 7.07069 13.8396 27.8276 1059.84 52.5896 336.581
lfemur -55.1982 29.8042 1.67467
ltibia 71.263 0 0
lfoot -8.58157 -8.79631 0
ltoes -25.4402 0 0
rfemur 4.68499 -3.90356 17.4806
rtibia 47.6475 0 0
rfoot -25.5524 -30.4008 0
rtoes -27.7639 0 0
lowerback 13.9259 4.89383 6.26377
upperback -0.615112 8.09056 5.07773
thorax -8.36415 3.80434 0.253318
lowerneck -2.99844 11.767 4.75765
upperneck 6.81045 15.8038 -3.63549
head 3.46989 7.85955 -1.27866
lclavicle -1.16345e-13 -6.62092e-15 0
lhumerus 63.042 16.8389 109.649
lradius 9.9094 0 0
lwrist -87.487 0 0
lhand -31.5514 40.985 0
lfingers 7.12502 0 0
lthumb -5.03101 70.8065 0
rclavicle 2.30879e-14 -2.31137e-14 0
rhumerus -72.6272 12.7693 -82.5047
rradius 125.259 0 0
rwrist -140.29 0 0
rhand -54.228 -401.037 0
rfingers 7.12502 0 0
rthumb -33.0907 312.846 0
1844
root 7.09094 13.8355 27.8427 1060.05 52.7535 336.729
lfemur -55.2662 29.854 1.65102
ltibia 71.3632 0 0
lfoot -8.61645 -8.80803 0
ltoes -25.5057 0 0
rfemur 4.75541 -3.98195 17.4953
rtibia 47.5054 0 0
rfoot -25.5592 -30.3989 0
rtoes -28.0309 0 0
lowerback 13.9066 4.96888 6.19428
upperback -0.626675 8.1661 4.97934
thorax -8.35725 3.84026 0.17351
lowerneck -2.83295 12.0565 4.99763
upperneck 6.68938 16.2024 -3.88242
head 3.46557 8.05774 -1.38241
lclavicle -1.17549e-13 -3.44224e-15 0
lhumerus 63.0507 16.8157 109.652
lradius 9.93703 0 0
lwrist -87.3687 0 0
lhand -31.4729 40.7709 0
lfingers 7.12502 0 0
lthumb -5.01607 70.7883 0
rclavicle 2.44529e-14 -2.44526e-14 0
rhumerus -72.8845 12.7496 -83.1249
rradius 125.346 0 0
rwrist -136.664 0 0
rhand -53.717 -406.267 0
rfingers 7.12502 0 0
rthumb -30.989 307.156 0
1845
root 7.10641 13.8272 27.8577 1059.98 52.8299 336.541
lfemur -55.2897 29.8712 1.64284
ltibia 71.398 0 0
lfoot -8.62457 -8.79492 0
ltoes -25.5937 0 0
rfemur 4.83167 -4.06683 17.5111
rtibia 47.3562 0 0
rfoot -25.5787 -30.3935 0
rtoes -28.3112 0 0
lowerback 13.9428 5.01785 6.30166
upperback -0.627668 8.25324 4.98049
thorax -8.36207 3.87744 0.096428
lowerneck -2.71491 12.3154 5.07414
upperneck 6.58945 16.5617 -4.05769
head 3.45329 8.23437 -1.43738
lclavicle -1.18601e-13 -6.62551e-16 0
lhumerus 63.041 16.7869 109.615
lradius 9.9675 0 0
lwrist -87.2101 0 0
lhand -31.398 40.5668 0
lfingers 7.12502 0 0
lthumb -4.99214 70.7592 0
rclavicle 2.57191e-14 -2.56945e-14 0
rhumerus -73.1418 12.73 -83.7451
rradius 125.423 0 0
rwrist -133.004 0 0
rhand -53.2786 -410.754 0
rfingers 7.12502 0 0
rthumb -28.9063 301.517 0
1846
root 7.12223 13.8195 27.8725 1059.81 52.9056 336.299
lfemur -55.297 29.8633 1.64564
ltibia 71.4092 0 0
lfoot -8.6479 -8.75722 0
ltoes -25.702 0 0
rfemur 4.91295 -4.1573 17.528
rtibia 47.2019 0 0
rfoot -25.6097 -30.385 0
rtoes -28.6011 0 0
lowerback 14.0252 5.05197 6.49402
upperback -0.649853 8.3384 4.9551
thorax -8.40004 3.90704 -0.0593166
lowerneck -2.56773 12.5399 5.20553
upperneck 6.54827 16.8724 -4.18184
head 3.45479 8.39011 -1.48748
lclavicle -1.19472e-13 1.63834e-15 0
lhumerus 63.0129 16.7031 109.506
lradius 10.0004 0 0
lwrist -87.0152 0 0
lhand -31.3276 40.3748 0
lfingers 7.12502 0 0
lthumb -4.95999 70.7201 0
rclavicle 2.687e-14 -2.68233e-14 0
rhumerus -73.396 12.7107 -84.3579
rradius 125.489 0 0
rwrist -129.378 0 0
rhand -52.9218 -414.406 0
rfingers 7.12502 0 0
rthumb -26.8809 296.033 0
1847
root 7.14038 13.8111 27.8871 1059.8 53.0468 336.267
lfemur -55.3181 29.8404 1.65374
ltibia 71.4418 0 0
lfoot -8.68493 -8.6974 0
ltoes -25.8286 0 0
rfemur 4.9984 -4.25241 17.5458
rtibia 47.0447 0 0
rfoot -25.651 -30.3735 0
rtoes -28.8967 0 0
lowerback 14.0357 5.04735 6.4916
upperback -0.621473 8.32886 4.94195
thorax -8.37337 3.90348 -0.0697426
lowerneck -2.41676 12.787 5.39823
upperneck 6.51466 17.2225 -4.43587
head 3.48252 8.5631 -1.58433
lclavicle -1.20132e-13 3.38063e-15 0
lhumerus 62.9678 16.5687 109.332
lradius 10.0354 0 0
lwrist -86.788 0 0
lhand -31.2624 40.1971 0
lfingers 7.12502 0 0
lthumb -4.9204 70.6719 0
rclavicle 2.7889e-14 -2.78228e-14 0
rhumerus -73.6442 12.6918 -84.9561
rradius 125.543 0 0
rwrist -125.852 0 0
rhand -52.6557 -417.129 0
rfingers 7.12502 0 0
rthumb -24.9508 290.807 0
